<svg width="41" height="45" viewBox="0 0 41 45" fill="none" xmlns="http://www.w3.org/2000/svg">
<path d="M1.66732 23.262C4.25732 25.641 9.62333 27.3619 16.0133 27.674C16.767 25.7957 17.9249 24.1064 19.405 22.7261C20.885 21.3457 22.6509 20.3081 24.577 19.687C26.5032 19.0659 28.5425 18.8765 30.5501 19.1323C32.5577 19.3881 34.4844 20.0828 36.1933 21.167C36.4473 20.436 36.3833 20.992 36.3833 10.777C36.383 10.4653 36.3386 10.1552 36.2514 9.85596C37.2604 14.28 28.7984 18.007 18.1944 18.007C8.17736 18.007 0.0543425 14.68 0.0543425 10.566C-0.0206575 10.893 0.00533131 9.90996 0.00533131 20.059C0.040223 20.68 0.206397 21.2866 0.49288 21.8387C0.779363 22.3909 1.17963 22.8759 1.66732 23.262ZM3.97433 17.528C4.38743 17.461 4.81111 17.5225 5.18819 17.704C5.56528 17.8855 5.87762 18.1784 6.08303 18.543C6.28844 18.9076 6.37703 19.3264 6.33687 19.7429C6.29672 20.1595 6.12976 20.5537 5.85848 20.8723C5.5872 21.191 5.22472 21.4188 4.81991 21.5249C4.4151 21.631 3.98746 21.6103 3.59475 21.4657C3.20204 21.3211 2.86314 21.0595 2.6238 20.7162C2.38446 20.3729 2.25623 19.9645 2.25637 19.546C2.21953 19.0513 2.37921 18.5619 2.70083 18.1841C3.02244 17.8063 3.48002 17.5705 3.97433 17.528Z" fill="white"/>
<path d="M15.0524 30.718C6.54641 30.147 0.0524117 27.0789 0.0524117 23.3719C-0.0215883 23.6999 0.00443809 22.717 0.00443809 32.866C0.0379319 33.4842 0.200829 34.0884 0.482649 34.6396C0.764468 35.1909 1.15892 35.6769 1.64042 36.066C4.38242 38.626 10.3044 40.42 17.2324 40.53C15.2612 37.6656 14.4796 34.1476 15.0524 30.718ZM3.91343 34.3719C3.4989 34.4465 3.07145 34.3917 2.68919 34.2148C2.30694 34.038 1.98837 33.7476 1.77684 33.3834C1.5653 33.0192 1.47103 32.5987 1.50682 32.1791C1.54261 31.7594 1.70676 31.361 1.97691 31.0378C2.24707 30.7147 2.61015 30.4826 3.01683 30.373C3.42351 30.2635 3.85406 30.2818 4.24998 30.4254C4.64591 30.5691 4.98806 30.8312 5.22984 31.176C5.47162 31.5209 5.60135 31.9318 5.60142 32.353C5.64127 32.8437 5.48661 33.3304 5.17082 33.7081C4.85503 34.0858 4.40344 34.3242 3.91343 34.3719Z" fill="white"/>
<path d="M18.1944 14.884C28.2129 14.884 36.3344 11.5521 36.3344 7.442C36.3344 3.3319 28.2129 0 18.1944 0C8.176 0 0.0544434 3.3319 0.0544434 7.442C0.0544434 11.5521 8.176 14.884 18.1944 14.884Z" fill="white"/>
<path d="M25.0074 22.543C25.0074 22.548 25.0074 22.548 25.0074 22.548C22.0304 23.641 20.3754 25.583 18.9124 28.138H18.9174C17.8077 30.4609 17.5412 33.0977 18.1635 35.5957C18.7858 38.0938 20.2581 40.2973 22.3278 41.8282C24.3975 43.3591 26.9355 44.1219 29.5062 43.9856C32.077 43.8494 34.5202 42.8226 36.4166 41.0816C38.3129 39.3405 39.5441 36.9938 39.8989 34.444C40.2538 31.8942 39.71 29.3004 38.3611 27.1077C37.0122 24.9151 34.9421 23.2603 32.5062 22.4274C30.0703 21.5945 27.4204 21.6353 25.0114 22.543H25.0074ZM34.0074 35.4941C34.0895 35.5757 34.1546 35.6728 34.199 35.7797C34.2434 35.8866 34.2663 36.0012 34.2663 36.117C34.2663 36.2328 34.2434 36.3475 34.199 36.4544C34.1546 36.5613 34.0895 36.6584 34.0074 36.74C31.7584 38.99 32.4384 38.959 28.9154 35.44C25.3414 39.007 26.0444 38.962 23.8154 36.74C23.7333 36.6584 23.6682 36.5613 23.6238 36.4544C23.5794 36.3475 23.5565 36.2328 23.5565 36.117C23.5565 36.0012 23.5794 35.8866 23.6238 35.7797C23.6682 35.6728 23.7333 35.5757 23.8154 35.4941L26.3904 32.919L23.8154 30.339C23.7334 30.2577 23.6684 30.1609 23.624 30.0544C23.5797 29.9478 23.5568 29.8335 23.5568 29.7181C23.5568 29.6026 23.5797 29.4882 23.624 29.3816C23.6684 29.2751 23.7334 29.1784 23.8154 29.0971L25.0914 27.8221C25.1726 27.74 25.2692 27.6749 25.3757 27.6304C25.4823 27.586 25.5965 27.5632 25.7119 27.5632C25.8273 27.5632 25.9415 27.586 26.048 27.6304C26.1546 27.6749 26.2512 27.74 26.3324 27.8221L28.9124 30.397C32.4794 26.83 31.7874 26.8721 34.0044 29.0971C34.0863 29.1784 34.1514 29.2751 34.1958 29.3816C34.2401 29.4882 34.263 29.6026 34.263 29.7181C34.263 29.8335 34.2401 29.9478 34.1958 30.0544C34.1514 30.1609 34.0863 30.2577 34.0044 30.339L31.4294 32.919L34.0074 35.4941Z" fill="white"/>
</svg>
