<svg width="44" height="44" viewBox="0 0 44 44" fill="none" xmlns="http://www.w3.org/2000/svg">
<path d="M21.991 0C17.6408 0.00178051 13.3887 1.29321 9.77236 3.71106C6.15596 6.12891 3.33758 9.56461 1.67342 13.5839C0.00925839 17.6032 -0.42595 22.0257 0.422807 26.2923C1.27156 30.5589 3.3662 34.4782 6.44191 37.5546C9.51762 40.631 13.4363 42.7264 17.7027 43.5762C21.9691 44.4259 26.3917 43.9917 30.4114 42.3285C34.4311 40.6652 37.8675 37.8476 40.2861 34.2318C42.7048 30.6159 43.9972 26.3642 44 22.014C43.9894 16.1796 41.6674 10.5872 37.5423 6.46118C33.4173 2.33519 27.8253 0.0118951 21.991 0ZM30.326 11.027C31.0341 11.0222 31.7277 11.2278 32.3189 11.6177C32.91 12.0076 33.3721 12.5643 33.6466 13.2171C33.921 13.8699 33.9954 14.5895 33.8604 15.2847C33.7253 15.9798 33.387 16.6193 32.8881 17.1219C32.3893 17.6245 31.7525 17.9678 31.0584 18.108C30.3642 18.2483 29.6441 18.1793 28.9892 17.9099C28.3343 17.6404 27.7742 17.1825 27.3798 16.5944C26.9855 16.0062 26.7746 15.3141 26.774 14.606C26.775 13.6617 27.1487 12.7561 27.8139 12.0859C28.479 11.4157 29.3818 11.0351 30.326 11.027ZM13.656 11.02C14.6062 11.02 15.5174 11.3974 16.1892 12.0693C16.8611 12.7411 17.2385 13.6523 17.2385 14.6025C17.2385 15.5526 16.8611 16.4638 16.1892 17.1357C15.5174 17.8075 14.6062 18.185 13.656 18.185C12.7059 18.185 11.7946 17.8075 11.1228 17.1357C10.4509 16.4638 10.0735 15.5526 10.0735 14.6025C10.0735 13.6523 10.4509 12.7411 11.1228 12.0693C11.7946 11.3974 12.7059 11.02 13.656 11.02ZM34.685 27.084C33.7065 29.6618 31.9657 31.8803 29.6948 33.4441C27.4238 35.0079 24.7303 35.8427 21.973 35.8374C19.2157 35.8321 16.5255 34.9868 14.2606 33.4143C11.9957 31.8418 10.2636 29.6166 9.295 27.035C9.20433 26.7818 9.1759 26.5105 9.21217 26.244C9.24845 25.9775 9.34833 25.7236 9.50337 25.5038C9.65842 25.284 9.86408 25.1048 10.103 24.9813C10.3419 24.8577 10.607 24.7934 10.876 24.7939H33.121C33.3941 24.7942 33.6632 24.861 33.9047 24.9886C34.1462 25.1163 34.3529 25.3009 34.507 25.5265C34.661 25.7521 34.7578 26.0118 34.7888 26.2832C34.8198 26.5546 34.7842 26.8295 34.685 27.084Z" fill="white"/>
</svg>
