<svg width="31" height="48" viewBox="0 0 31 48" fill="none" xmlns="http://www.w3.org/2000/svg">
<path d="M25.8927 24.7802C25.884 24.7802 25.8796 24.7671 25.8709 24.7627V25.7126C25.8641 25.8779 25.7936 26.0342 25.6742 26.1488C25.5548 26.2634 25.3958 26.3273 25.2303 26.3273C25.0648 26.3273 24.9057 26.2634 24.7863 26.1488C24.6669 26.0342 24.5964 25.8779 24.5895 25.7126V22.2654C24.5402 21.8285 24.3689 21.4143 24.0952 21.0702C23.8215 20.7261 23.4566 20.4659 23.042 20.3195C22.6274 20.1731 22.18 20.1463 21.7509 20.2422C21.3218 20.3381 20.9284 20.5529 20.6156 20.8619C20.329 21.1874 20.1189 21.5731 20.001 21.9906C19.883 22.4081 19.8601 22.8467 19.9341 23.2742C19.9272 23.4389 19.857 23.5946 19.738 23.7088C19.619 23.823 19.4605 23.8868 19.2955 23.8868C19.1306 23.8868 18.9721 23.823 18.8531 23.7088C18.7341 23.5946 18.6638 23.4389 18.657 23.2742V20.5478C18.657 19.9046 18.4015 19.2877 17.9467 18.8328C17.4918 18.378 16.8749 18.1225 16.2317 18.1225C15.5884 18.1225 14.9716 18.378 14.5167 18.8328C14.0619 19.2877 13.8063 19.9046 13.8063 20.5478V22.96C13.7995 23.1248 13.7293 23.2806 13.6103 23.3948C13.4913 23.509 13.3327 23.5728 13.1678 23.5728C13.0029 23.5728 12.8444 23.509 12.7254 23.3948C12.6064 23.2806 12.5361 23.1248 12.5293 22.96V19.9066V11.1648C12.5286 10.9853 12.51 10.8063 12.4737 10.6305C12.4279 10.0101 12.1437 9.43141 11.6806 9.01597C11.2175 8.60054 10.6116 8.38057 9.98989 8.40215C9.36816 8.42373 8.77898 8.68525 8.34583 9.13179C7.91268 9.57833 7.66921 10.1752 7.66657 10.7973V13.1452C7.61968 16.2074 7.68401 21.3559 7.68401 33.5623C7.67719 33.7276 7.60673 33.8839 7.48732 33.9985C7.36792 34.1131 7.20885 34.177 7.04336 34.177C6.87787 34.177 6.71881 34.1131 6.5994 33.9985C6.47999 33.8839 6.40947 33.7276 6.40264 33.5623V25.116C5.89568 25.0924 5.38921 25.1715 4.91361 25.3486C4.438 25.5257 4.00307 25.7971 3.6351 26.1467C3.26713 26.4962 2.97366 26.9166 2.77233 27.3825C2.57101 27.8483 2.46601 28.3502 2.46362 28.8577V34.0716C2.49625 37.7735 3.98975 41.3127 6.61903 43.9189C9.24832 46.5251 12.8006 47.9874 16.5027 47.9874C20.2048 47.9874 23.757 46.5251 26.3863 43.9189C29.0156 41.3127 30.5091 37.7735 30.5417 34.0716V25.0005C30.5646 24.3878 30.3446 23.7908 29.9298 23.3393C29.515 22.8878 28.9387 22.6181 28.3263 22.5891C27.7138 22.5601 27.1147 22.7739 26.659 23.1842C26.2033 23.5944 25.9279 24.168 25.8927 24.7802Z" fill="white"/>
<path d="M4.15499 17.8542C4.45379 17.8544 4.74582 17.7651 4.99346 17.5979C5.24111 17.4307 5.433 17.1933 5.54446 16.9161C5.65592 16.6388 5.68181 16.3346 5.61881 16.0425C5.55581 15.7504 5.40684 15.4838 5.19102 15.2772C4.23635 14.361 3.55529 13.1973 3.22407 11.9163C2.89285 10.6352 2.92451 9.28721 3.31546 8.02309C3.7064 6.75897 4.44123 5.62855 5.43783 4.75813C6.43442 3.88771 7.65348 3.31154 8.95871 3.09424C10.2639 2.87693 11.6039 3.02698 12.8287 3.52755C14.0536 4.02812 15.1151 4.85954 15.8945 5.92881C16.6739 6.99808 17.1406 8.26307 17.2423 9.58235C17.344 10.9016 17.0767 12.2231 16.4704 13.3992C16.3746 13.5743 16.3148 13.7668 16.2944 13.9653C16.274 14.1638 16.2935 14.3643 16.3518 14.5551C16.41 14.746 16.5058 14.9233 16.6335 15.0766C16.7613 15.2299 16.9183 15.3561 17.0955 15.4479C17.2728 15.5396 17.4665 15.595 17.6654 15.6108C17.8644 15.6266 18.0645 15.6025 18.2539 15.5398C18.4434 15.4772 18.6184 15.3773 18.7687 15.246C18.919 15.1148 19.0416 14.9549 19.1292 14.7756C19.8327 13.413 20.2175 11.9085 20.2549 10.3755C20.2922 8.8425 19.981 7.32094 19.3446 5.92575C18.7083 4.53055 17.7635 3.29807 16.5815 2.3212C15.3995 1.34433 14.011 0.64869 12.5209 0.286555C11.0309 -0.0755798 9.47806 -0.094769 7.97953 0.230644C6.481 0.556056 5.07592 1.21751 3.87025 2.16504C2.66457 3.11258 1.68971 4.3215 1.0193 5.70064C0.348886 7.07978 0.000401603 8.5931 4.83462e-05 10.1266C-0.00418958 11.4925 0.270231 12.845 0.806503 14.1013C1.34277 15.3576 2.12961 16.4914 3.11897 17.4332C3.39667 17.7026 3.76814 17.8535 4.15499 17.8542Z" fill="white"/>
</svg>
